0
SECTION
2
HEADER
9
$INSUNITS
70
4
9
$ACADVER
1
AC1014
9
$HANDSEED
5
FFFF
0
ENDSEC
0
SECTION
2
TABLES
0
TABLE
2
VPORT
5
8
100
AcDbSymbolTable
0
ENDTAB
0
TABLE
2
LTYPE
5
5
100
AcDbSymbolTable
0
LTYPE
5
14
100
AcDbSymbolTableRecord
100
AcDbLinetypeTableRecord
2
BYBLOCK
70
0
0
LTYPE
5
15
100
AcDbSymbolTableRecord
100
AcDbLinetypeTableRecord
2
BYLAYER
70
0
0
ENDTAB
0
TABLE
2
LAYER
5
2
100
AcDbSymbolTable
70
2
0
LAYER
5
50
100
AcDbSymbolTableRecord
100
AcDbLayerTableRecord
2
0
70
0
6
CONTINUOUS
0
ENDTAB
0
TABLE
2
STYLE
5
3
100
AcDbSymbolTable
70
1
0
STYLE
5
11
100
AcDbSymbolTableRecord
100
AcDbTextStyleTableRecord
2
STANDARD
70
0
0
ENDTAB
0
TABLE
2
VIEW
5
6
100
AcDbSymbolTable
70
0
0
ENDTAB
0
TABLE
2
UCS
5
7
100
AcDbSymbolTable
70
0
0
ENDTAB
0
TABLE
2
APPID
5
9
100
AcDbSymbolTable
70
2
0
APPID
5
12
100
AcDbSymbolTableRecord
100
AcDbRegAppTableRecord
2
ACAD
70
0
0
ENDTAB
0
TABLE
2
DIMSTYLE
5
A
100
AcDbSymbolTable
70
1
0
ENDTAB
0
TABLE
2
BLOCK_RECORD
5
1
100
AcDbSymbolTable
70
1
0
BLOCK_RECORD
5
1F
100
AcDbSymbolTableRecord
100
AcDbBlockTableRecord
2
*MODEL_SPACE
0
BLOCK_RECORD
5
1B
100
AcDbSymbolTableRecord
100
AcDbBlockTableRecord
2
*PAPER_SPACE
0
ENDTAB
0
ENDSEC
0
SECTION
2
BLOCKS
0
BLOCK
5
20
100
AcDbEntity
100
AcDbBlockBegin
2
*MODEL_SPACE
0
ENDBLK
5
21
100
AcDbEntity
100
AcDbBlockEnd
0
BLOCK
5
1C
100
AcDbEntity
100
AcDbBlockBegin
2
*PAPER_SPACE
0
ENDBLK
5
1D
100
AcDbEntity
100
AcDbBlockEnd
0
ENDSEC
0
SECTION
2
ENTITIES
0
LINE
5
100
100
AcDbEntity
8
0
100
AcDbLine
10
17.766474486872191
20
27.999952745176966
30
0
11
-17.766474486876128
21
27.999952745176966
31
0
0
SPLINE
5
101
100
AcDbEntity
8
0
100
AcDbSpline
70
0
71
3
72
11
73
7
74
0
42
0.000000001
43
0.0000000001
44
0.0000000001
40
-5.9033428777580248
40
-5.9033428777580248
40
-5.9033428777580248
40
-5.9033428777580248
40
-3.0322229121687347
40
-3.0322229121687347
40
-3.0322229121687347
40
-0.86382827752219438
40
-0.86382827752219438
40
-0.86382827752219438
40
-0.86382827752219438
10
-17.766474486876128
20
27.999952745176966
30
0
10
-17.746206572509131
20
15.508678239474635
30
0
10
-17.641410357491377
20
3.8684850850166623
30
0
10
-17.241233069690036
20
-8.0628036927259199
30
0
10
-16.939002889546018
20
-17.07379873559686
30
0
10
-16.476277596115139
20
-25.876905806363332
30
0
10
-15.716911140250813
20
-33.818430009986628
30
0
0
LINE
5
102
100
AcDbEntity
8
0
100
AcDbLine
10
-15.716911140250813
20
-33.818430009986635
30
0
11
15.716911140246877
21
-33.818430009986628
31
0
0
SPLINE
5
103
100
AcDbEntity
8
0
100
AcDbSpline
70
0
71
3
72
11
73
7
74
0
42
0.000000001
43
0.0000000001
44
0.0000000001
40
0.86382827752219438
40
0.86382827752219438
40
0.86382827752219438
40
0.86382827752219438
40
3.0322229121687347
40
3.0322229121687347
40
3.0322229121687347
40
5.9033428777580248
40
5.9033428777580248
40
5.9033428777580248
40
5.9033428777580248
10
15.716911140246879
20
-33.818430009986628
30
0
10
16.476277596111206
20
-25.876905806363332
30
0
10
16.939002889542081
20
-17.07379873559686
30
0
10
17.241233069686103
20
-8.0628036927259199
30
0
10
17.641410357487445
20
3.8684850850166623
30
0
10
17.746206572505194
20
15.508678239474635
30
0
10
17.766474486872191
20
27.999952745176966
30
0
0
LINE
5
104
100
AcDbEntity
8
0
100
AcDbLine
10
11.099999999999993
20
27.999952745176966
30
0
11
11.100000000000012
21
-33.818430009986628
31
0
0
LINE
5
105
100
AcDbEntity
8
0
100
AcDbLine
10
13.099999999999991
20
27.999952745176966
30
0
11
13.100000000000012
21
-33.818430009986628
31
0
0
SPLINE
5
106
100
AcDbEntity
8
0
100
AcDbSpline
70
0
71
3
72
11
73
7
74
0
42
0.000000001
43
0.0000000001
44
0.0000000001
40
0.86382827752219438
40
0.86382827752219438
40
0.86382827752219438
40
0.86382827752219438
40
3.0322229121687347
40
3.0322229121687347
40
3.0322229121687347
40
5.9033428777580248
40
5.9033428777580248
40
5.9033428777580248
40
5.9033428777580248
10
13.725992050598528
20
-33.628058850212398
30
0
10
14.479356151422076
20
-25.749307827399193
30
0
10
14.940956599867
20
-16.982018119201143
30
0
10
15.242357063523635
20
-7.9957610795013139
30
0
10
15.641465618561023
20
3.9036634230271283
30
0
10
15.746224084174809
20
15.5210933834303
30
0
10
15.766477119586654
20
28.003197872434065
30
0
0
LINE
5
107
100
AcDbEntity
8
0
100
AcDbLine
10
4.9162510527293773e-13
20
-2.5000000000000182
30
0
11
3.9330009324371753e-12
21
-20.000000000000146
31
-1.001112525792704e-15
0
LINE
5
108
100
AcDbEntity
8
0
100
AcDbLine
10
-11.100000000011006
20
27.9999527451726
30
0
11
-11.099999999986711
21
-33.81843000999099
31
0
0
LINE
5
109
100
AcDbEntity
8
0
100
AcDbLine
10
-13.100000000011004
20
27.999952745171814
30
0
11
-13.099999999986711
21
-33.818430009991772
31
0
0
LINE
5
110
100
AcDbEntity
8
0
100
AcDbLine
10
-5.9999999999999769
20
21.500000000000021
30
0
11
6.0000000000000089
21
21.500000000000021
31
0
0
ARC
5
111
100
AcDbEntity
8
0
100
AcDbCircle
10
6.000000000000024
20
19.000000000000025
30
0
40
2.4999999999999956
210
0
220
0
230
1
100
AcDbArc
50
-90
51
90
0
LINE
5
112
100
AcDbEntity
8
0
100
AcDbLine
10
6.0000000000000098
20
16.500000000000028
30
0
11
-5.9999999999999742
21
16.500000000000028
31
0
0
ARC
5
113
100
AcDbEntity
8
0
100
AcDbCircle
10
-5.9999999999999769
20
19.000000000000025
30
0
40
2.4999999999999956
210
0
220
-0
230
1
100
AcDbArc
50
90
51
270.00000000000006
0
ARC
5
114
100
AcDbEntity
8
0
100
AcDbCircle
10
6.000000000000024
20
8.0000000000000249
30
0
40
2.4999999999999956
210
0
220
0
230
1
100
AcDbArc
50
-90
51
90
0
LINE
5
115
100
AcDbEntity
8
0
100
AcDbLine
10
-5.9999999999999769
20
10.500000000000021
30
0
11
6.0000000000000089
21
10.500000000000021
31
0
0
LINE
5
116
100
AcDbEntity
8
0
100
AcDbLine
10
6.0000000000000098
20
5.5000000000000293
30
0
11
-5.9999999999999742
21
5.5000000000000293
31
0
0
ARC
5
117
100
AcDbEntity
8
0
100
AcDbCircle
10
-5.9999999999999769
20
8.0000000000000249
30
0
40
2.4999999999999956
210
0
220
-0
230
1
100
AcDbArc
50
90
51
270.00000000000006
0
ARC
5
118
100
AcDbEntity
8
0
100
AcDbCircle
10
6.000000000000024
20
-2.999999999999976
30
0
40
2.4999999999999956
210
0
220
0
230
1
100
AcDbArc
50
-90
51
90
0
LINE
5
119
100
AcDbEntity
8
0
100
AcDbLine
10
-5.9999999999999769
20
-0.49999999999998046
30
0
11
6.0000000000000089
21
-0.49999999999998046
31
0
0
LINE
5
120
100
AcDbEntity
8
0
100
AcDbLine
10
6.0000000000000098
20
-5.4999999999999716
30
0
11
-5.9999999999999742
21
-5.4999999999999716
31
0
0
ARC
5
121
100
AcDbEntity
8
0
100
AcDbCircle
10
-5.9999999999999769
20
-2.999999999999976
30
0
40
2.4999999999999956
210
0
220
-0
230
1
100
AcDbArc
50
90
51
270.00000000000006
0
ARC
5
122
100
AcDbEntity
8
0
100
AcDbCircle
10
6.000000000000024
20
-13.999999999999977
30
0
40
2.4999999999999956
210
0
220
0
230
1
100
AcDbArc
50
-90
51
90
0
LINE
5
123
100
AcDbEntity
8
0
100
AcDbLine
10
-5.9999999999999769
20
-11.499999999999982
30
0
11
6.0000000000000089
21
-11.499999999999982
31
0
0
LINE
5
124
100
AcDbEntity
8
0
100
AcDbLine
10
6.0000000000000098
20
-16.499999999999972
30
0
11
-5.9999999999999742
21
-16.499999999999972
31
0
0
ARC
5
125
100
AcDbEntity
8
0
100
AcDbCircle
10
-5.9999999999999769
20
-13.999999999999977
30
0
40
2.4999999999999956
210
0
220
-0
230
1
100
AcDbArc
50
90
51
270.00000000000006
0
LINE
5
126
100
AcDbEntity
8
0
100
AcDbLine
10
13.099999999999996
20
15.999952745176991
30
0
11
11.099999999999996
21
15.999952745176991
31
0
0
LINE
5
127
100
AcDbEntity
8
0
100
AcDbLine
10
13.099999999999996
20
10.999952745176991
30
0
11
11.099999999999996
21
10.999952745176991
31
0
0
LINE
5
128
100
AcDbEntity
8
0
100
AcDbLine
10
17.86597230569026
20
27.999952745176991
30
-1.1102230246251565e-15
11
-17.866976190598173
21
27.999952745176991
31
-1.1102230246251565e-15
0
LINE
5
129
100
AcDbEntity
8
0
100
AcDbLine
10
11.100000000000001
20
2.4999527451813526
30
0
11
-11.100000000000986
21
2.4999527451726271
31
0
0
LINE
5
130
100
AcDbEntity
8
0
100
AcDbLine
10
13.100000000006677
20
-6.0000472548127126
30
0
11
11.100000000006677
21
-6.0000472548142847
31
0
0
LINE
5
131
100
AcDbEntity
8
0
100
AcDbLine
10
13.100000000010608
20
-11.000047254812714
30
0
11
11.100000000010608
21
-11.000047254814284
31
0
0
LINE
5
132
100
AcDbEntity
8
0
100
AcDbLine
10
-13.10000000000629
20
15.999952745171839
30
0
11
-11.10000000000629
21
15.999952745172624
31
0
0
LINE
5
133
100
AcDbEntity
8
0
100
AcDbLine
10
-13.100000000004325
20
10.999952745171839
30
0
11
-11.100000000004327
21
10.999952745172624
31
0
0
LINE
5
134
100
AcDbEntity
8
0
100
AcDbLine
10
-13.10000000000432
20
-6.0000472548178641
30
0
11
-11.10000000000432
21
-6.0000472548186501
31
0
0
LINE
5
135
100
AcDbEntity
8
0
100
AcDbLine
10
-13.100000000006283
20
-11.000047254817867
30
0
11
-11.100000000006283
21
-11.00004725481865
31
0
0
LINE
5
136
100
AcDbEntity
8
0
100
AcDbLine
10
14.499999999999995
20
13.999952745176991
30
0
11
13.099999999999996
21
13.999952745176991
31
0
0
LINE
5
137
100
AcDbEntity
8
0
100
AcDbLine
10
14.499999999999995
20
12.999952745176991
30
0
11
13.099999999999996
21
12.999952745176991
31
0
0
LINE
5
138
100
AcDbEntity
8
0
100
AcDbLine
10
14.499999675899737
20
-8.0000472548121611
30
0
11
13.100000000000003
21
-8.0000472548118626
31
0
0
LINE
5
139
100
AcDbEntity
8
0
100
AcDbLine
10
14.499999675899897
20
-9.0000472548122321
30
0
11
13.100000000000003
21
-9.0000472548118751
31
0
0
LINE
5
140
100
AcDbEntity
8
0
100
AcDbLine
10
-14.500000000005501
20
13.999952745171289
30
0
11
-13.100000000005503
21
13.999952745171839
31
0
0
LINE
5
141
100
AcDbEntity
8
0
100
AcDbLine
10
-14.500000000005107
20
12.999952745171289
30
0
11
-13.100000000005112
21
12.999952745171839
31
0
0
LINE
5
142
100
AcDbEntity
8
0
100
AcDbLine
10
-14.499999675896618
20
-8.0000472548179253
30
0
11
-13.099999999996859
21
-8.0000472548170158
31
0
0
LINE
5
143
100
AcDbEntity
8
0
100
AcDbLine
10
-14.499999675896358
20
-9.0000472548179342
30
0
11
-13.099999999996463
21
-9.0000472548170265
31
0
0
SPLINE
5
144
100
AcDbEntity
8
0
100
AcDbSpline
70
0
71
3
72
11
73
7
74
0
42
0.000000001
43
0.0000000001
44
0.0000000001
40
0.86382827752219438
40
0.86382827752219438
40
0.86382827752219438
40
0.86382827752219438
40
3.0322229121687347
40
3.0322229121687347
40
3.0322229121687347
40
5.9033428777580248
40
5.9033428777580248
40
5.9033428777580248
40
5.9033428777580248
10
-13.725992050585303
20
-33.628058850217798
30
0
10
-14.479356151411949
20
-25.749307827404884
30
0
10
-14.940956599860321
20
-16.982018119207019
30
0
10
-15.24235706352049
20
-7.9957610795073091
30
0
10
-15.641465618562558
20
3.9036634230209764
30
0
10
-15.746224084180913
20
15.521093383424107
30
0
10
-15.766477119597667
20
28.003197872427865
30
0
0
LINE
5
145
100
AcDbEntity
8
0
100
AcDbLine
10
14.499999999999995
20
13.999952745176991
30
0
11
14.499999999999995
21
12.999952745176991
31
0
0
LINE
5
146
100
AcDbEntity
8
0
100
AcDbLine
10
14.499999675899737
20
-8.0000472548121611
30
0
11
14.499999675899897
21
-9.0000472548122321
31
0
0
LINE
5
147
100
AcDbEntity
8
0
100
AcDbLine
10
-14.500000000005501
20
13.999952745171289
30
0
11
-14.500000000005107
21
12.999952745171289
31
0
0
LINE
5
148
100
AcDbEntity
8
0
100
AcDbLine
10
-14.499999675896618
20
-8.0000472548179253
30
0
11
-14.499999675896358
21
-9.0000472548179342
31
0
0
LINE
5
149
100
AcDbEntity
8
0
100
AcDbLine
10
12.099999999999994
20
15.999952745176991
30
0
11
12.099999999999994
21
10.999952745176991
31
0
0
LINE
5
150
100
AcDbEntity
8
0
100
AcDbLine
10
12.100000000006679
20
-6.0000472548134987
30
0
11
12.10000000001061
21
-11.000047254813499
31
0
0
LINE
5
151
100
AcDbEntity
8
0
100
AcDbLine
10
-12.100000000004322
20
-6.0000472548182575
30
0
11
-12.100000000006283
21
-11.000047254818258
31
0
0
LINE
5
152
100
AcDbEntity
8
0
100
AcDbLine
10
-12.100000000006288
20
15.999952745172232
30
0
11
-12.100000000004325
21
10.999952745172232
31
0
0
LINE
5
153
100
AcDbEntity
8
0
100
AcDbLine
10
13.100000000000012
20
-33.818430009986628
30
0
11
13.099999999999996
21
-37.000047254823002
31
0
0
LINE
5
154
100
AcDbEntity
8
0
100
AcDbLine
10
13.099999999999996
20
-37.000047254823002
30
0
11
-5.8999995753168974
21
-37.000047254823009
31
0
0
LINE
5
155
100
AcDbEntity
8
0
100
AcDbLine
10
-5.8999995753168974
20
-37.000047254823009
30
0
11
-13.099999999986711
21
-37.000047254823009
31
0
0
LINE
5
156
100
AcDbEntity
8
0
100
AcDbLine
10
-13.099999999986711
20
-33.818430009991772
30
0
11
-13.099999999986711
21
-37.000047254823009
31
0
0
LINE
5
157
100
AcDbEntity
8
0
100
AcDbLine
10
11.100000000000012
20
-35.000047254823016
30
0
11
-11.099999999986711
21
-35.000047254823016
31
0
0
LINE
5
158
100
AcDbEntity
8
0
100
AcDbLine
10
11.100000000000012
20
-33.818430009986628
30
0
11
11.100000000000012
21
-35.000047254823016
31
0
0
LINE
5
159
100
AcDbEntity
8
0
100
AcDbLine
10
-11.099999999986711
20
-33.81843000999099
30
0
11
-11.099999999986711
21
-35.000047254823016
31
0
0
LINE
5
160
100
AcDbEntity
8
0
100
AcDbLine
10
5.0000000000000142
20
-35.000047254823016
30
0
11
5.000000000000016
21
-37.000047254823009
31
0
0
LINE
5
161
100
AcDbEntity
8
0
100
AcDbLine
10
-4.9999999999862492
20
-35.000047254824985
30
0
11
-4.9999999999854623
21
-37.000047254824977
31
0
0
LINE
5
162
100
AcDbEntity
8
0
100
AcDbLine
10
13.100000000000009
20
-25.000047254823016
30
0
11
11.10000000000001
21
-25.000047254823016
31
0
0
LINE
5
163
100
AcDbEntity
8
0
100
AcDbLine
10
-13.099999999990178
20
-25.000047254828168
30
0
11
-11.099999999990178
21
-25.000047254827379
31
0
0
LINE
5
164
100
AcDbEntity
8
0
100
AcDbLine
10
11.100000000000012
20
-32.000047254823016
30
0
11
6.9700476249012935
21
-32.000047254823016
31
0
0
LINE
5
165
100
AcDbEntity
8
0
100
AcDbLine
10
6.9700476249012935
20
-32.000047254823016
30
0
11
5.0000000000000142
21
-35.000047254823016
31
0
0
LINE
5
166
100
AcDbEntity
8
0
100
AcDbLine
10
-6.970047624888708
20
-32.000047254825759
30
0
11
-4.9999999999862492
21
-35.000047254824985
31
0
0
LINE
5
167
100
AcDbEntity
8
0
100
AcDbLine
10
-11.099999999987427
20
-32.000047254827379
30
0
11
-6.970047624888708
21
-32.000047254825759
31
0
0
LINE
5
168
100
AcDbEntity
8
0
100
AcDbLine
10
11.100000000000012
20
-35.000047254823016
30
0
11
11.100000000000012
21
-38.99999912828207
31
0
0
LINE
5
169
100
AcDbEntity
8
0
100
AcDbLine
10
11.100000000000012
20
-38.99999912828207
30
0
11
13.099999707192183
21
-38.99999912828207
31
0
0
LINE
5
170
100
AcDbEntity
8
0
100
AcDbLine
10
13.099999707192183
20
-38.99999912828207
30
0
11
13.099999999999996
21
-37.000047254823002
31
0
0
LINE
5
171
100
AcDbEntity
8
0
100
AcDbLine
10
-13.099999707176844
20
-38.999999128287222
30
0
11
-13.099999999985448
21
-37.000047254828154
31
0
0
LINE
5
172
100
AcDbEntity
8
0
100
AcDbLine
10
-11.099999999984673
20
-38.999999128286433
30
0
11
-13.099999707176844
21
-38.999999128287222
31
0
0
LINE
5
173
100
AcDbEntity
8
0
100
AcDbLine
10
-11.099999999986249
20
-35.000047254827379
30
0
11
-11.099999999984673
21
-38.999999128286433
31
0
0
LINE
5
174
100
AcDbEntity
8
0
100
AcDbLine
10
5.000000000000016
20
-37.000047254823009
30
0
11
5.0000000000000231
21
-41.000047254823009
31
0
0
LINE
5
175
100
AcDbEntity
8
0
100
AcDbLine
10
5.0000000000000231
20
-41.000047254823009
30
0
11
3.9999999105930333
21
-41.000047254823009
31
0
0
LINE
5
176
100
AcDbEntity
8
0
100
AcDbLine
10
3.9999999105930333
20
-41.000047254823009
30
0
11
3.9999999105930311
21
-37.000047254823009
31
0
0
LINE
5
177
100
AcDbEntity
8
0
100
AcDbLine
10
-4.9999999999838982
20
-41.000047254824985
30
0
11
-3.999999910576908
21
-41.000047254824594
31
0
0
LINE
5
178
100
AcDbEntity
8
0
100
AcDbLine
10
-4.9999999999854623
20
-37.000047254824977
30
0
11
-4.9999999999838982
21
-41.000047254824985
31
0
0
LINE
5
179
100
AcDbEntity
8
0
100
AcDbLine
10
-3.999999910576908
20
-41.000047254824594
30
0
11
-3.9999999105784783
21
-37.00004725482458
31
0
0
LINE
5
180
100
AcDbEntity
8
0
100
AcDbLine
10
3.9999999105930328
20
-38.99999912828207
30
0
11
-3.9999999105776936
21
-38.999999128285211
31
0
0
LINE
5
181
100
AcDbEntity
8
0
100
AcDbLine
10
9.0999997965991479
20
-35.000047254823002
30
0
11
9.0999997965991515
21
-37.000047254823002
31
0
0
LINE
5
182
100
AcDbEntity
8
0
100
AcDbLine
10
-9.0999997965853812
20
-35.000047254826583
30
0
11
-9.0999997965845978
21
-37.000047254826583
31
0
0
LINE
5
183
100
AcDbEntity
8
0
100
AcDbLine
10
13.725992050598528
20
-33.628058850212398
30
0
11
15.735042006060571
21
-33.628058850212398
31
0
0
LWPOLYLINE
5
184
100
AcDbEntity
8
0
100
AcDbPolyline
90
4
70
1
43
0.0
10
3.5000000000051124
20
-33.000047254823016
10
-3.4999999999948872
20
-33.000047254823016
10
-3.4999999999948872
20
-26.000047254823009
10
3.5000000000051124
20
-26.000047254823009
0
ENDSEC
0
SECTION
2
OBJECTS
0
DICTIONARY
5
C
100
AcDbDictionary
3
ACAD_GROUP
350
D
3
ACAD_MLINESTYLE
350
17
0
DICTIONARY
5
D
100
AcDbDictionary
0
DICTIONARY
5
1A
330
C
100
AcDbDictionary
0
DICTIONARY
5
17
100
AcDbDictionary
0
ENDSEC
0
EOF
